<?xml version="1.0" encoding="utf-8"?>
<!-- Generator: Adobe Illustrator 23.0.3, SVG Export Plug-In . SVG Version: 6.00 Build 0)  -->
<svg version="1.1" id="Calque_1" xmlns="http://www.w3.org/2000/svg" xmlns:xlink="http://www.w3.org/1999/xlink" x="0px" y="0px"
	 viewBox="0 0 173.6 198.9" style="enable-background:new 0 0 173.6 198.9;" xml:space="preserve">
<style type="text/css">
	.st0{fill:#FF8473;}
</style>
<title>chatkit_icon</title>
<g>
	<g>
		<path class="st0" d="M34.7,109.8l15.9,9.2c0.9,0.5,1.5,1.5,1.5,2.6v56c0,1.1-1.2,1.8-2.1,1.2l-13.7-7.9c-0.9-0.5-1.5-1.5-1.5-2.6
			v-36.6c0-1.1-0.6-2.1-1.5-2.6l-15.9-9.2l-15.9-9.2C0.6,110.1,0,109.1,0,108V92.2c0-1.1,1.2-1.8,2.1-1.2L34.7,109.8z"/>
	</g>
	<path class="st0" d="M173.6,52.1c0-1.1-1.2-1.8-2.1-1.2l-32.6,18.8l-33.2,19.2c-0.9,0.5-1.5,1.5-1.5,2.6v15.9
		c0,1.1,1.2,1.8,2.1,1.2l65.8-38c0.9-0.5,1.5-1.5,1.5-2.6L173.6,52.1z"/>
	<path class="st0" d="M173.6,92.2c0-1.1-1.2-1.8-2.1-1.2l-32.6,18.8l-33.2,19.2c-0.9,0.5-1.5,1.5-1.5,2.6v15.9
		c0,1.1,1.2,1.8,2.1,1.2l65.8-38c0.9-0.5,1.5-1.5,1.5-2.6L173.6,92.2z"/>
	<path class="st0" d="M173.6,132.2c0-1.1-1.2-1.8-2.1-1.2l-32.6,18.8L105.6,169c-0.9,0.5-1.5,1.5-1.5,2.6v15.9
		c0,1.1,1.2,1.8,2.1,1.2l65.8-38c0.9-0.5,1.5-1.5,1.5-2.6L173.6,132.2z"/>
	<path class="st0" d="M69.4,29.6l15.9,9.2c0.9,0.5,2.1,0.5,3,0l15.9-9.2l15.3-8.8c0.9-0.5,0.9-1.9,0-2.4l-13.7-7.9
		c-0.9-0.5-2.1-0.5-3,0l-14.4,8.3c-0.9,0.5-2.1,0.5-3,0l-14.4-8.3c-0.9-0.5-2.1-0.5-3,0l-13.7,7.9c-0.9,0.5-0.9,1.9,0,2.4L69.4,29.6
		z"/>
	<g>
		<path class="st0" d="M19.5,38.4l13.7-7.9c0.9-0.5,2.1-0.5,3,0l33.2,19.2l15.9,9.2c0.9,0.5,2.1,0.5,3,0l49.1-28.3
			c0.9-0.5,2.1-0.5,3,0l13.7,7.9c0.9,0.5,0.9,1.9,0,2.4l-50,28.8l-15.9,9.2c-0.9,0.5-2.1,0.5-3,0l-15.9-9.2l-50-28.8
			C18.5,40.3,18.5,38.9,19.5,38.4z"/>
	</g>
	<path class="st0" d="M69.4,89.7l-34.7-20L2.1,50.9C1.2,50.3,0,51,0,52.1l0,15.9C0,69,0.6,70,1.5,70.5l67.2,38.8
		c0.4,0.3,0.7,0.7,0.7,1.2v77.6c0,1.1,0.6,2.1,1.5,2.6l13.7,7.9c0.9,0.5,2.1-0.1,2.1-1.2l0-77.7l0,0v-18.3c0-1.1-0.6-2.1-1.5-2.6
		L69.4,89.7z"/>
	<path class="st0" d="M15.3,158.7l-13.7-7.9c-0.9-0.5-1.5-1.5-1.5-2.6v-15.9c0-1.1,1.2-1.8,2.1-1.2l13.7,7.9
		c0.9,0.5,1.5,1.5,1.5,2.6v15.9C17.4,158.5,16.2,159.2,15.3,158.7z"/>
</g>
</svg>
