<?xml version="1.0" encoding="utf-8"?>
<!-- Generator: Adobe Illustrator 23.0.3, SVG Export Plug-In . SVG Version: 6.00 Build 0)  -->
<svg version="1.1" id="Calque_1" xmlns="http://www.w3.org/2000/svg" xmlns:xlink="http://www.w3.org/1999/xlink" x="0px" y="0px"
	 viewBox="0 0 947.2 200" style="enable-background:new 0 0 947.2 200;" xml:space="preserve">
<style type="text/css">
	.st0{fill:#FFFFFF;}
	.st1{fill:#FF8473;}
</style>
<title>beams_full-logo</title>
<g>
	<path class="st0" d="M309.8,41.1c23.9,0,42.4,16.4,45,40.3l-23.4,3.9C329,71,321.3,62.9,309.8,62.9c-16.3,0-26,13.9-26,37.1
		c0,23.2,9.7,37.1,26,37.1c12.1,0,19.8-8.5,21.9-24.2l23.4,4c-2.9,25.3-20.6,41.9-45.3,41.9c-30.2,0-49.8-23.2-49.8-58.9
		C260,64.3,279.7,41.1,309.8,41.1z"/>
	<path class="st0" d="M378.8,43.5h23.9v44.2h36.6V43.5h23.9v112.9h-23.9v-46.9h-36.6v46.9h-23.9V43.5z"/>
	<path class="st0" d="M556.2,138.8H513l-6,17.6h-23.7l40.3-112.9h21.9l40.3,112.9h-23.7L556.2,138.8z M548.9,117.9l-14.2-41.6h-0.3
		l-14.2,41.6H548.9z"/>
	<path class="st0" d="M615.2,65.5h-32.7V43.5h89.2v21.9h-32.6v90.9h-23.9V65.5z"/>
	<path class="st0" d="M696.3,43.5h23.9v46.1h0.3l37.9-46.1h27.9l-41.4,50l44.7,62.9h-28.4l-31-45.1h-0.3l-9.7,11.8v33.4h-23.9V43.5z
		"/>
	<path class="st0" d="M809.3,43.5h23.9v112.9h-23.9V43.5z"/>
	<path class="st0" d="M890.8,65.5H858V43.5h89.2v21.9h-32.6v90.9h-23.9V65.5z"/>
</g>
<g>
	<g>
		<path class="st1" d="M34.9,110.3l15.9,9.2c0.9,0.5,1.5,1.5,1.5,2.6v56.3c0,1.1-1.2,1.8-2.1,1.2l-13.8-8c-0.9-0.5-1.5-1.5-1.5-2.6
			v-36.8c0-1.1-0.6-2.1-1.5-2.6l-15.9-9.2l-15.9-9.2c-0.9-0.5-1.5-1.5-1.5-2.6v-16c0-1.1,1.2-1.8,2.1-1.2L34.9,110.3z"/>
	</g>
	<path class="st1" d="M174.6,52.3c0-1.1-1.2-1.8-2.1-1.2L139.6,70l-33.4,19.3c-0.9,0.5-1.5,1.5-1.5,2.6v16c0,1.1,1.2,1.8,2.1,1.2
		L173,70.9c0.9-0.5,1.5-1.5,1.5-2.6L174.6,52.3z"/>
	<path class="st1" d="M174.6,92.6c0-1.1-1.2-1.8-2.1-1.2l-32.8,18.9l-33.4,19.3c-0.9,0.5-1.5,1.5-1.5,2.6v16c0,1.1,1.2,1.8,2.1,1.2
		l66.2-38.2c0.9-0.5,1.5-1.5,1.5-2.6L174.6,92.6z"/>
	<path class="st1" d="M174.6,132.9c0-1.1-1.2-1.8-2.1-1.2l-32.8,18.9l-33.4,19.3c-0.9,0.5-1.5,1.5-1.5,2.6v16c0,1.1,1.2,1.8,2.1,1.2
		l66.2-38.2c0.9-0.5,1.5-1.5,1.5-2.6L174.6,132.9z"/>
	<path class="st1" d="M69.8,29.7l15.9,9.2c0.9,0.5,2.1,0.5,3,0l15.9-9.2l15.3-8.9c0.9-0.5,0.9-1.9,0-2.4l-13.8-8
		c-0.9-0.5-2.1-0.5-3,0l-14.4,8.3c-0.9,0.5-2.1,0.5-3,0l-14.4-8.3c-0.9-0.5-2.1-0.5-3,0l-13.8,8c-0.9,0.5-0.9,1.9,0,2.4L69.8,29.7z"
		/>
	<g>
		<path class="st1" d="M19.6,38.6l13.8-8c0.9-0.5,2.1-0.5,3,0l33.4,19.3l15.9,9.2c0.9,0.5,2.1,0.5,3,0l49.3-28.5
			c0.9-0.5,2.1-0.5,3,0l13.8,8c0.9,0.5,0.9,1.9,0,2.4l-50.2,29l-15.9,9.2c-0.9,0.5-2.1,0.5-3,0L69.8,70L19.6,41
			C18.6,40.5,18.6,39.1,19.6,38.6z"/>
	</g>
	<path class="st1" d="M69.8,90.2L34.9,70L2.1,51.1C1.2,50.5,0,51.2,0,52.3l0,16c0,1.1,0.6,2.1,1.5,2.6l67.6,39
		c0.4,0.3,0.7,0.7,0.7,1.2v78.1c0,1.1,0.6,2.1,1.5,2.6l13.8,8c0.9,0.5,2.1-0.1,2.1-1.2l0-78.2l0,0V102c0-1.1-0.6-2.1-1.5-2.6
		L69.8,90.2z"/>
	<path class="st1" d="M15.3,159.5l-13.8-8C0.6,151,0,150,0,148.9v-16c0-1.1,1.2-1.8,2.1-1.2l13.8,8c0.9,0.5,1.5,1.5,1.5,2.6v16
		C17.5,159.4,16.3,160,15.3,159.5z"/>
</g>
</svg>
